<svg xmlns="http://www.w3.org/2000/svg" viewBox="0 0 64 64">
  <defs>
    <style>
      .a{fill:#e9eef9}
      .b{fill:none;stroke:#1f3b8f;stroke-width:3;stroke-linecap:round;stroke-linejoin:round}
      .c{fill:#1f3b8f}
    </style>
  </defs>
  <circle class="a" cx="32" cy="32" r="28"/>
  <circle class="b" cx="32" cy="32" r="28"/>
  <g transform="translate(14,14) scale(1.1)">
  <path class="c" d="M28.5 13H10.7c.5-4.5 3.6-7.1 8.2-7.1 2.8 0 5.2.9 7 2.9l2.8-2.9C26 3.6 22.8 2.5 19 2.5 11.4 2.5 6.1 7 5.1 13H3v4h1.8c.7 6 6.1 10.5 14.2 10.5 3.8 0 7-1.1 9.7-3.4l-2.8-3c-2 1.7-4.3 2.6-6.9 2.6-4.8 0-8-2.8-8.8-6.7h18.4v-4z"/>
</g>
</svg>