<svg xmlns="http://www.w3.org/2000/svg" viewBox="0 0 64 64">
  <defs>
    <style>
      .a{fill:#e9eef9}
      .b{fill:none;stroke:#1f3b8f;stroke-width:3;stroke-linecap:round;stroke-linejoin:round}
      .c{fill:#1f3b8f}
    </style>
  </defs>
  <circle class="a" cx="32" cy="32" r="28"/>
  <circle class="b" cx="32" cy="32" r="28"/>
  <g transform="translate(18,12) scale(1.0)">
  <path class="c" d="M14 6V2h-4v4c-4.1.6-6.8 3-6.8 6.5 0 3.5 2.3 5.2 6.8 6.1v7.2c-2.6-.4-4.6-1.6-6.1-3.4l-2.6 3.1c2.2 2.6 5.1 4.1 8.7 4.5V46h4v-3.9c4.5-.7 7.1-3.2 7.1-6.7s-2.1-5.3-7.1-6.3v-7.2c2.1.4 3.7 1.3 4.9 2.6l2.5-3.2C19.6 8.5 17.1 7.1 14 6zm0 11.8c2.6.6 3.6 1.4 3.6 3 0 1.6-1 2.5-3.6 3V17.8zm-4-4.1c-2.2-.6-3.2-1.5-3.2-3s1-2.4 3.2-2.9v5.9z"/>
</g>
</svg>